<svg width="24" height="20" fill="none" xmlns="http://www.w3.org/2000/svg"><path d="M24 2.55705c-.883.392-1.832.656-2.828.775 1.017-.609 1.798-1.574 2.165-2.724003-.951.564003-2.005.974003-3.127 1.195003C19.313.846047 18.032.248047 16.616.248047c-3.179 0-5.515 2.966003-4.797 6.045003-4.091-.205-7.719-2.165-10.148-5.144-1.29 2.213-.669 5.108 1.523 6.574-.806-.026-1.566-.247-2.229-.616-.054 2.281 1.581 4.41495 3.949 4.88995-.693.188-1.452.232-2.224.084.626 1.956 2.444 3.379 4.6 3.419-2.07 1.623-4.678 2.348-7.29 2.04 2.179 1.397 4.768 2.212 7.548 2.212 9.142 0 14.307-7.721 13.995-14.64595.962-.695 1.797-1.562 2.457-2.549z" fill="#FEFCF7"/></svg>